<?xml version="1.0" encoding="UTF-8"?>
<svg version="1.1" xmlns="http://www.w3.org/2000/svg" width="500" height="500">
<path d="M0 0 C2.25537522 0.00316083 4.50943387 -0.0204057 6.76464844 -0.0456543 C16.52030764 -0.08755862 25.39779881 1.03162928 34.88964844 3.31567383 C36.03159668 3.58001221 37.17354492 3.84435059 38.35009766 4.11669922 C44.05595203 5.45636308 49.47206097 7.09385425 54.88964844 9.31567383 C55.72238281 9.62891602 56.55511719 9.9421582 57.41308594 10.26489258 C70.72027275 15.46016414 85.18331169 22.6941201 95.88964844 32.31567383 C95.88964844 32.97567383 95.88964844 33.63567383 95.88964844 34.31567383 C96.46714844 34.57606445 97.04464844 34.83645508 97.63964844 35.10473633 C101.55348175 37.21113967 104.6191636 40.33946574 107.88964844 43.31567383 C108.73527344 44.03754883 109.58089844 44.75942383 110.45214844 45.50317383 C111.88964844 47.31567383 111.88964844 47.31567383 111.95214844 49.31567383 C110.48070064 52.08545793 108.40955642 53.50650912 105.88964844 55.31567383 C104.18214864 54.03504898 102.51591248 52.69799826 100.88964844 51.31567383 C100.88964844 50.65567383 100.88964844 49.99567383 100.88964844 49.31567383 C100.22964844 49.31567383 99.56964844 49.31567383 98.88964844 49.31567383 C97.26464844 47.94067383 97.26464844 47.94067383 95.88964844 46.31567383 C95.88964844 45.65567383 95.88964844 44.99567383 95.88964844 44.31567383 C95.31182617 44.04255371 94.73400391 43.76943359 94.13867188 43.48803711 C91.90566312 42.32402191 89.94965423 41.02533333 87.90527344 39.55786133 C55.38906913 16.54316762 18.79955776 5.12421198 -21.36035156 11.50317383 C-38.95508364 14.61431149 -57.78490606 20.82020469 -72.06738281 31.77270508 C-78.08250346 36.31567383 -78.08250346 36.31567383 -81.11035156 36.31567383 C-81.11035156 36.97567383 -81.11035156 37.63567383 -81.11035156 38.31567383 C-82.75488281 39.71801758 -82.75488281 39.71801758 -84.92285156 41.25317383 C-87.02902227 42.75319705 -88.94738197 44.14725895 -90.74707031 46.00708008 C-92.11035156 47.31567383 -92.11035156 47.31567383 -94.11035156 47.31567383 C-94.11035156 47.97567383 -94.11035156 48.63567383 -94.11035156 49.31567383 C-94.77035156 49.31567383 -95.43035156 49.31567383 -96.11035156 49.31567383 C-96.11035156 49.97567383 -96.11035156 50.63567383 -96.11035156 51.31567383 C-96.77035156 51.31567383 -97.43035156 51.31567383 -98.11035156 51.31567383 C-98.33464844 51.85321289 -98.55894531 52.39075195 -98.79003906 52.94458008 C-100.53447716 56.07734318 -102.86683311 58.5883403 -105.23535156 61.25317383 C-110.68032306 67.5444862 -115.03506112 74.03965748 -119.11035156 81.31567383 C-119.63113281 82.22188477 -120.15191406 83.1280957 -120.68847656 84.06176758 C-136.24625876 112.9255477 -140.19722958 150.5914431 -132.11035156 182.31567383 C-131.93874512 182.99581543 -131.76713867 183.67595703 -131.59033203 184.37670898 C-128.9708373 194.36543466 -125.00780226 203.24227187 -120.11035156 212.31567383 C-119.61535156 213.2824707 -119.12035156 214.24926758 -118.61035156 215.24536133 C-114.34242887 223.43327823 -109.11633861 230.86835325 -103.11035156 237.87817383 C-101.11035156 240.31567383 -101.11035156 240.31567383 -101.11035156 242.31567383 C-100.45035156 242.31567383 -99.79035156 242.31567383 -99.11035156 242.31567383 C-97.48535156 243.69067383 -97.48535156 243.69067383 -96.11035156 245.31567383 C-96.11035156 245.97567383 -96.11035156 246.63567383 -96.11035156 247.31567383 C-95.12035156 247.64567383 -94.13035156 247.97567383 -93.11035156 248.31567383 C-93.11035156 248.97567383 -93.11035156 249.63567383 -93.11035156 250.31567383 C-92.51996094 250.58250977 -91.92957031 250.8493457 -91.32128906 251.12426758 C-89.07176116 252.33646901 -87.57519139 253.61742214 -85.73535156 255.37817383 C-56.44514129 281.42592539 -18.85475132 287.64695899 18.88964844 286.31567383 C44.37026793 284.5139699 70.73480028 271.73009308 90.18261719 255.56567383 C91.88964844 254.31567383 91.88964844 254.31567383 93.88964844 254.31567383 C93.88964844 253.65567383 93.88964844 252.99567383 93.88964844 252.31567383 C94.54964844 252.31567383 95.20964844 252.31567383 95.88964844 252.31567383 C95.88964844 250.66567383 95.88964844 249.01567383 95.88964844 247.31567383 C95.22964844 247.31567383 94.56964844 247.31567383 93.88964844 247.31567383 C93.88964844 246.65567383 93.88964844 245.99567383 93.88964844 245.31567383 C93.30699219 245.05012695 92.72433594 244.78458008 92.12402344 244.51098633 C89.82790615 243.28264386 88.08608826 241.91252444 86.13964844 240.19067383 C85.52605469 239.6518457 84.91246094 239.11301758 84.28027344 238.55786133 C83.59191406 237.94297852 83.59191406 237.94297852 82.88964844 237.31567383 C78.73012126 239.94970142 78.73012126 239.94970142 75.06933594 243.21020508 C65.48201736 252.47107374 51.32222623 258.10404614 38.88964844 262.31567383 C37.52453125 262.81647461 37.52453125 262.81647461 36.13183594 263.32739258 C17.94837544 268.87006186 -2.58059669 268.86344397 -21.11035156 265.31567383 C-22.12613281 265.14422852 -23.14191406 264.9727832 -24.18847656 264.79614258 C-37.78803084 262.14798816 -51.70360595 256.17971005 -63.11035156 248.31567383 C-64.11324219 247.62989258 -65.11613281 246.94411133 -66.14941406 246.23754883 C-71.83688834 242.23471883 -71.83688834 242.23471883 -74.11035156 240.31567383 C-74.11035156 239.65567383 -74.11035156 238.99567383 -74.11035156 238.31567383 C-74.65175781 238.09782227 -75.19316406 237.8799707 -75.75097656 237.65551758 C-78.91652654 235.85786254 -81.32008378 233.44549151 -83.86035156 230.87817383 C-84.38532227 230.34973877 -84.91029297 229.82130371 -85.45117188 229.27685547 C-98.11035156 216.26732234 -98.11035156 216.26732234 -98.11035156 210.31567383 C-98.77035156 210.31567383 -99.43035156 210.31567383 -100.11035156 210.31567383 C-108.26984511 193.69370937 -113.71774385 178.70859432 -116.11035156 160.31567383 C-116.27921875 159.15293945 -116.44808594 157.99020508 -116.62207031 156.79223633 C-119.6095852 130.25796435 -110.42138306 100.86586102 -95.11035156 79.31567383 C-94.54960937 78.51000977 -93.98886719 77.7043457 -93.41113281 76.87426758 C-90.48699266 72.80312814 -90.48699266 72.80312814 -89.11035156 71.31567383 C-88.45035156 71.31567383 -87.79035156 71.31567383 -87.11035156 71.31567383 C-87.11035156 70.65567383 -87.11035156 69.99567383 -87.11035156 69.31567383 C-86.45035156 69.31567383 -85.79035156 69.31567383 -85.11035156 69.31567383 C-84.72363281 68.44168945 -84.72363281 68.44168945 -84.32910156 67.55004883 C-83.0120114 65.13538352 -81.55946772 63.49827205 -79.61035156 61.56567383 C-79.00191406 60.95208008 -78.39347656 60.33848633 -77.76660156 59.70629883 C-76.11035156 58.31567383 -76.11035156 58.31567383 -74.11035156 58.31567383 C-74.11035156 57.65567383 -74.11035156 56.99567383 -74.11035156 56.31567383 C-72.14067788 54.78737519 -70.17946841 53.38486885 -68.11035156 52.00317383 C-67.28083984 51.43566406 -67.28083984 51.43566406 -66.43457031 50.85668945 C-64.67098715 49.65866917 -62.89313804 48.48490392 -61.11035156 47.31567383 C-60.48563965 46.89825928 -59.86092773 46.48084473 -59.21728516 46.05078125 C-54.27243985 42.83373467 -49.21403458 40.4248602 -43.73535156 38.25317383 C-42.87119629 37.90955811 -42.00704102 37.56594238 -41.11669922 37.21191406 C-29.67856257 32.81704205 -17.39897479 29.7518441 -5.11035156 29.31567383 C-3.98628906 29.27571289 -2.86222656 29.23575195 -1.70410156 29.19458008 C29.1099822 28.65342365 57.37502961 38.48835424 80.88964844 58.31567383 C82.55874287 59.97990918 84.22578996 61.64620369 85.88964844 63.31567383 C86.87964844 63.97567383 87.86964844 64.63567383 88.88964844 65.31567383 C88.48825089 70.23461838 86.0417014 72.76287137 82.68261719 76.08911133 C82.16081375 76.61711334 81.63901031 77.14511536 81.10139465 77.68911743 C79.99928201 78.79831434 78.89203266 79.90242804 77.7800293 81.00170898 C76.07738775 82.69043647 74.40016991 84.40185394 72.72363281 86.11645508 C71.64891254 87.19212611 70.57278715 88.26639548 69.49511719 89.33911133 C68.99392868 89.85355804 68.49274017 90.36800476 67.97636414 90.89804077 C66.53100586 92.30541992 66.53100586 92.30541992 63.88964844 94.31567383 C61.24659448 94.19311977 60.35341259 93.74233684 58.42480469 91.96801758 C57.93882812 91.40211914 57.45285156 90.8362207 56.95214844 90.25317383 C44.09167216 76.84192768 23.65328667 69.40449758 5.29345703 68.89208984 C-3.50836681 68.84482171 -11.67038371 69.64740719 -20.11035156 72.31567383 C-21.05007812 72.60571289 -21.98980469 72.89575195 -22.95800781 73.19458008 C-31.78484593 76.16168881 -39.95992927 80.31854545 -47.11035156 86.31567383 C-47.77035156 86.31567383 -48.43035156 86.31567383 -49.11035156 86.31567383 C-49.11035156 86.97567383 -49.11035156 87.63567383 -49.11035156 88.31567383 C-50.60644531 89.75317383 -50.60644531 89.75317383 -52.54785156 91.31567383 C-55.26223394 93.46092426 -55.26223394 93.46092426 -57.11035156 96.31567383 C-57.77035156 96.31567383 -58.43035156 96.31567383 -59.11035156 96.31567383 C-59.37203125 96.87254883 -59.63371094 97.42942383 -59.90332031 98.00317383 C-61.24557108 100.57473516 -62.80643287 102.90717414 -64.42285156 105.31567383 C-74.84186399 121.62651865 -79.73365964 142.09964684 -76.11035156 161.31567383 C-73.12279506 174.25084453 -68.74454351 186.42180977 -60.21191406 196.79223633 C-59.11035156 198.31567383 -59.11035156 198.31567383 -59.11035156 200.31567383 C-58.45035156 200.31567383 -57.79035156 200.31567383 -57.11035156 200.31567383 C-57.11035156 200.97567383 -57.11035156 201.63567383 -57.11035156 202.31567383 C-56.45035156 202.31567383 -55.79035156 202.31567383 -55.11035156 202.31567383 C-53.91206024 203.76909873 -52.71628408 205.2247231 -51.53759766 206.6940918 C-45.40437812 213.66241957 -35.50382363 218.6417146 -27.11035156 222.31567383 C-26.44777344 222.61086914 -25.78519531 222.90606445 -25.10253906 223.21020508 C-7.33271374 230.51238026 13.99491986 228.95888789 31.66308594 222.26489258 C33.78762518 221.35084663 35.83472587 220.37536919 37.88964844 219.31567383 C38.84355469 218.86192383 39.79746094 218.40817383 40.78027344 217.94067383 C43.91644787 216.30166809 46.66365678 214.47023954 49.51464844 212.37817383 C50.43503906 211.70915039 51.35542969 211.04012695 52.30371094 210.35083008 C54.69005156 208.47275838 56.79695891 206.5115241 58.88964844 204.31567383 C61.73347967 205.59049472 64.02718862 206.7670446 65.88964844 209.31567383 C65.27124106 214.38661429 61.67313504 216.3466364 57.88964844 219.31567383 C57.32375 219.80165039 56.75785156 220.28762695 56.17480469 220.78833008 C40.17681909 233.91577997 15.20963631 240.08878022 -5.11035156 238.31567383 C-23.57278945 235.76206449 -39.63646367 229.5668648 -54.20019531 217.83129883 C-56.2429484 216.16759077 -56.2429484 216.16759077 -59.11035156 214.31567383 C-59.11035156 213.65567383 -59.11035156 212.99567383 -59.11035156 212.31567383 C-59.77035156 212.31567383 -60.43035156 212.31567383 -61.11035156 212.31567383 C-61.11035156 211.65567383 -61.11035156 210.99567383 -61.11035156 210.31567383 C-61.77035156 210.31567383 -62.43035156 210.31567383 -63.11035156 210.31567383 C-63.11035156 209.65567383 -63.11035156 208.99567383 -63.11035156 208.31567383 C-63.77035156 208.31567383 -64.43035156 208.31567383 -65.11035156 208.31567383 C-81.66900421 189.90218229 -88.29394465 165.88048245 -87.26269531 141.5378418 C-85.85161593 120.95507811 -76.53846183 101.74022411 -63.11035156 86.31567383 C-62.45035156 86.31567383 -61.79035156 86.31567383 -61.11035156 86.31567383 C-61.11035156 85.65567383 -61.11035156 84.99567383 -61.11035156 84.31567383 C-55.63416109 79.31567383 -55.63416109 79.31567383 -53.11035156 79.31567383 C-53.11035156 78.65567383 -53.11035156 77.99567383 -53.11035156 77.31567383 C-52.12035156 77.31567383 -51.13035156 77.31567383 -50.11035156 77.31567383 C-50.11035156 76.65567383 -50.11035156 75.99567383 -50.11035156 75.31567383 C-26.15562306 60.56854409 -0.76691891 55.23221154 26.96728516 61.80639648 C39.23375724 65.0560613 51.10865614 71.2090894 60.88964844 79.31567383 C60.88964844 79.97567383 60.88964844 80.63567383 60.88964844 81.31567383 C61.87964844 81.31567383 62.86964844 81.31567383 63.88964844 81.31567383 C63.88964844 80.65567383 63.88964844 79.99567383 63.88964844 79.31567383 C65.28027344 77.94848633 65.28027344 77.94848633 67.13964844 76.44067383 C67.77515625 75.91086914 68.41066406 75.38106445 69.06542969 74.83520508 C69.66742188 74.33375977 70.26941406 73.83231445 70.88964844 73.31567383 C73.26756822 71.27522419 73.26756822 71.27522419 74.88964844 69.31567383 C74.88964844 68.32567383 74.88964844 67.33567383 74.88964844 66.31567383 C72.50680353 64.19893517 72.50680353 64.19893517 69.51464844 62.19067383 C68.01804687 61.13493164 68.01804687 61.13493164 66.49121094 60.05786133 C64.04673775 58.34167909 64.04673775 58.34167909 61.88964844 57.31567383 C61.88964844 56.65567383 61.88964844 55.99567383 61.88964844 55.31567383 C61.16777344 55.04239258 60.44589844 54.76911133 59.70214844 54.48754883 C56.96402193 53.34666278 54.48299122 52.0012743 51.88964844 50.56567383 C25.94125336 37.46301889 -3.87602179 36.30679282 -31.46191406 44.37036133 C-38.49635151 46.88117824 -45.1514244 50.3072571 -51.79785156 53.69067383 C-55.11035156 55.31567383 -55.11035156 55.31567383 -57.11035156 55.31567383 C-57.11035156 55.97567383 -57.11035156 56.63567383 -57.11035156 57.31567383 C-58.84583325 58.76094119 -60.65011119 60.12439603 -62.48535156 61.44067383 C-63.48308594 62.16512695 -64.48082031 62.88958008 -65.50878906 63.63598633 C-68.11035156 65.31567383 -68.11035156 65.31567383 -70.11035156 65.31567383 C-70.11035156 65.97567383 -70.11035156 66.63567383 -70.11035156 67.31567383 C-71.57128906 68.71801758 -71.57128906 68.71801758 -73.48535156 70.25317383 C-75.9493668 72.23553999 -77.31501593 73.62267038 -79.11035156 76.31567383 C-79.77035156 76.31567383 -80.43035156 76.31567383 -81.11035156 76.31567383 C-81.77035156 77.96567383 -82.43035156 79.61567383 -83.11035156 81.31567383 C-83.77035156 81.31567383 -84.43035156 81.31567383 -85.11035156 81.31567383 C-85.38492188 82.06204102 -85.65949219 82.8084082 -85.94238281 83.57739258 C-87.02103318 86.10626852 -88.16864665 87.93655845 -89.79785156 90.12817383 C-96.93464766 100.63270012 -101.19020664 113.04813033 -104.11035156 125.31567383 C-104.44873047 126.6846582 -104.44873047 126.6846582 -104.79394531 128.08129883 C-110.08687097 153.63335372 -104.65579023 182.1812728 -91.11035156 204.31567383 C-89.51101416 206.74928974 -87.89024272 209.15854611 -86.21191406 211.53833008 C-85.11035156 213.31567383 -85.11035156 213.31567383 -85.11035156 215.31567383 C-84.45035156 215.31567383 -83.79035156 215.31567383 -83.11035156 215.31567383 C-78.11035156 220.7918643 -78.11035156 220.7918643 -78.11035156 223.31567383 C-77.12035156 223.64567383 -76.13035156 223.97567383 -75.11035156 224.31567383 C-75.11035156 224.97567383 -75.11035156 225.63567383 -75.11035156 226.31567383 C-74.53285156 226.5709082 -73.95535156 226.82614258 -73.36035156 227.08911133 C-70.87951351 228.44151263 -69.15635495 229.99542061 -67.11035156 231.94067383 C-53.60643646 244.08321863 -37.660977 251.15479521 -20.11035156 255.31567383 C-19.37913086 255.49227539 -18.64791016 255.66887695 -17.89453125 255.85083008 C-11.27554061 257.32934414 -4.88133682 257.70118533 1.88964844 257.69067383 C2.98108154 257.6890625 4.07251465 257.68745117 5.19702148 257.68579102 C14.85523204 257.54131093 23.64999745 256.02326386 32.88964844 253.31567383 C34.49453125 252.88254883 34.49453125 252.88254883 36.13183594 252.44067383 C54.450795 246.99843665 69.195995 235.22760295 82.88964844 222.31567383 C88.69980219 227.11851937 94.06126099 232.3010676 99.38989258 237.63061523 C100.84342634 239.08192685 102.30483017 240.52500871 103.76660156 241.96801758 C104.68248047 242.88196289 105.59835937 243.7959082 106.54199219 244.73754883 C107.79484009 245.9842334 107.79484009 245.9842334 109.07299805 247.25610352 C110.88964844 249.31567383 110.88964844 249.31567383 110.88964844 251.31567383 C109.24511719 253.00708008 109.24511719 253.00708008 107.07714844 254.87817383 C106.36945313 255.49821289 105.66175781 256.11825195 104.93261719 256.75708008 C102.88964844 258.31567383 102.88964844 258.31567383 99.88964844 259.31567383 C99.55964844 260.30567383 99.22964844 261.29567383 98.88964844 262.31567383 C96.83838399 263.98454938 94.80978095 265.50455077 92.63964844 267.00317383 C91.69617554 267.6630127 91.69617554 267.6630127 90.73364258 268.33618164 C75.05504203 279.19830039 59.06233935 286.67922424 40.88964844 292.31567383 C39.80425781 292.66114258 38.71886719 293.00661133 37.60058594 293.36254883 C26.68654978 296.16573285 16.18456218 296.63161665 4.98095703 296.57641602 C2.39429284 296.56569308 -0.19167708 296.57636683 -2.77832031 296.58911133 C-19.74071166 296.60446881 -35.34800724 293.77565101 -51.11035156 287.31567383 C-52.07585937 286.95344727 -53.04136719 286.5912207 -54.03613281 286.21801758 C-68.62141054 280.44783273 -82.34095688 271.66857499 -94.11035156 261.31567383 C-94.99335938 260.54094727 -95.87636719 259.7662207 -96.78613281 258.96801758 C-105.1947527 251.48422419 -105.1947527 251.48422419 -108.11035156 248.31567383 C-108.11035156 247.65567383 -108.11035156 246.99567383 -108.11035156 246.31567383 C-109.10035156 245.98567383 -110.09035156 245.65567383 -111.11035156 245.31567383 C-112.29785156 242.75317383 -112.29785156 242.75317383 -113.11035156 240.31567383 C-113.77035156 240.31567383 -114.43035156 240.31567383 -115.11035156 240.31567383 C-116.73670465 238.20356689 -118.2164816 236.10468636 -119.67285156 233.87817383 C-120.11467773 233.20512207 -120.55650391 232.53207031 -121.01171875 231.83862305 C-129.28708176 219.01210572 -135.59296725 205.89589478 -140.11035156 191.31567383 C-140.42746094 190.29602539 -140.74457031 189.27637695 -141.07128906 188.22583008 C-152.02748384 150.42153423 -145.9487102 108.92198128 -127.12402344 74.73168945 C-123.54973912 68.41643181 -119.83215512 61.85422178 -115.11035156 56.31567383 C-114.45035156 56.31567383 -113.79035156 56.31567383 -113.11035156 56.31567383 C-112.84222656 55.51129883 -112.57410156 54.70692383 -112.29785156 53.87817383 C-111.90597656 53.03254883 -111.51410156 52.18692383 -111.11035156 51.31567383 C-110.12035156 50.98567383 -109.13035156 50.65567383 -108.11035156 50.31567383 C-107.61535156 49.32567383 -107.61535156 49.32567383 -107.11035156 48.31567383 C-106.11035156 46.31567383 -106.11035156 46.31567383 -103.11035156 45.31567383 C-102.42548431 43.99159714 -101.76164954 42.65658142 -101.11035156 41.31567383 C-99.11035156 39.06567383 -99.11035156 39.06567383 -97.11035156 37.31567383 C-96.45035156 37.31567383 -95.79035156 37.31567383 -95.11035156 37.31567383 C-95.11035156 36.65567383 -95.11035156 35.99567383 -95.11035156 35.31567383 C-91.6488131 32.31567383 -91.6488131 32.31567383 -89.11035156 32.31567383 C-89.11035156 31.65567383 -89.11035156 30.99567383 -89.11035156 30.31567383 C-74.31811727 18.63317061 -56.62941674 10.39490208 -38.67285156 5.12817383 C-37.82698486 4.877854 -36.98111816 4.62753418 -36.10961914 4.36962891 C-24.12573266 0.98732936 -12.38546405 -0.03614435 0 0 Z " fill="#6D6562" transform="translate(266.1103515625,101.684326171875)"/>
<path d="M0 0 C0.73421173 -0.00570007 1.46842346 -0.01140015 2.22488403 -0.01727295 C3.77979101 -0.026696 5.33471771 -0.03324619 6.88964844 -0.03710938 C9.21587468 -0.04670206 11.54117253 -0.0777016 13.8671875 -0.109375 C23.77276867 -0.17907451 32.74724773 0.86557508 42.3828125 3.203125 C43.52411621 3.46754395 44.66541992 3.73196289 45.84130859 4.00439453 C51.54812348 5.34293774 56.96464443 6.98106731 62.3828125 9.203125 C63.21554687 9.51636719 64.04828125 9.82960938 64.90625 10.15234375 C78.21343681 15.34761531 92.67647575 22.58157127 103.3828125 32.203125 C103.3828125 32.863125 103.3828125 33.523125 103.3828125 34.203125 C103.9603125 34.46351563 104.5378125 34.72390625 105.1328125 34.9921875 C109.04664582 37.09859085 112.11232766 40.22691692 115.3828125 43.203125 C116.2284375 43.925 117.0740625 44.646875 117.9453125 45.390625 C119.3828125 47.203125 119.3828125 47.203125 119.4453125 49.203125 C117.9738647 51.9729091 115.90272049 53.39396029 113.3828125 55.203125 C111.6753127 53.92250015 110.00907654 52.58544943 108.3828125 51.203125 C108.3828125 50.543125 108.3828125 49.883125 108.3828125 49.203125 C107.7228125 49.203125 107.0628125 49.203125 106.3828125 49.203125 C104.7578125 47.828125 104.7578125 47.828125 103.3828125 46.203125 C103.3828125 45.543125 103.3828125 44.883125 103.3828125 44.203125 C102.80499023 43.93000488 102.22716797 43.65688477 101.63183594 43.37548828 C99.39882719 42.21147308 97.4428183 40.9127845 95.3984375 39.4453125 C76.22257994 25.87280311 56.57315626 16.36891912 33.47900391 11.64599609 C32.05790736 11.3457551 30.64313298 11.01420981 29.23583984 10.65478516 C21.13572351 8.72472589 13.02361342 8.98083709 4.7578125 9.078125 C3.26172477 9.08817892 1.76563047 9.09730049 0.26953125 9.10546875 C-3.35951376 9.12728192 -6.98830735 9.16167759 -10.6171875 9.203125 C-10.6171875 7.223125 -10.6171875 5.243125 -10.6171875 3.203125 C-11.2771875 3.203125 -11.9371875 3.203125 -12.6171875 3.203125 C-12.6171875 2.543125 -12.6171875 1.883125 -12.6171875 1.203125 C-8.40646105 0.18929991 -4.30876851 0.02643455 0 0 Z " fill="#655E5A" transform="translate(258.6171875,101.796875)"/>
<path d="M0 0 C6.31327412 -0.86090102 10.11418619 1.426172 15.6328125 4.34375 C21.53429469 7.24656723 27.70892666 9.15199721 34 11 C35.051875 11.32226562 36.10375 11.64453125 37.1875 11.9765625 C54.67024505 16.56149809 73.82167663 15.11149082 91 10 C92.15113281 9.66484375 93.30226563 9.3296875 94.48828125 8.984375 C98.93022952 7.59038874 103.0444248 6.05519709 107.125 3.8125 C111.5437678 1.43531479 116.05482942 1.20267093 121 1 C123 4 123 4 123.0234375 5.96875 C121.39584009 9.19909601 118.83488932 9.96816562 115.625 11.5 C114.68140625 11.95282349 114.68140625 11.95282349 113.71875 12.41479492 C108.27509225 14.98028393 102.71473721 17.11592258 97 19 C96.09507812 19.33128906 95.19015625 19.66257812 94.2578125 20.00390625 C76.07773703 25.56256242 55.52933885 25.54769049 37 22 C35.98421875 21.82855469 34.9684375 21.65710938 33.921875 21.48046875 C26.96290518 20.12539297 20.53902157 17.80483505 14 15.125 C13.18635986 14.79741699 12.37271973 14.46983398 11.53442383 14.13232422 C6.72692773 12.0849 3.54408626 9.95634395 0 6 C-2.16620544 4.70480005 -2.16620544 4.70480005 -4 4 C-3.67 3.01 -3.34 2.02 -3 1 C-2.34 1.33 -1.68 1.66 -1 2 C-0.67 1.34 -0.34 0.68 0 0 Z " fill="#655E5A" transform="translate(208,345)"/>
<path d="M0 0 C4.15925479 0.93390807 7.77463122 2.71617025 11.5625 4.625 C12.62778931 5.16024292 12.62778931 5.16024292 13.71459961 5.70629883 C19.72670098 8.77383614 25.41998632 12.19965846 31 16 C31.73476563 16.48726562 32.46953125 16.97453125 33.2265625 17.4765625 C34.86097397 18.59004601 36.43892824 19.78583307 38 21 C38 21.66 38 22.32 38 23 C38.5775 23.26039063 39.155 23.52078125 39.75 23.7890625 C43.66383332 25.89546585 46.72951516 29.02379192 50 32 C50.845625 32.721875 51.69125 33.44375 52.5625 34.1875 C54 36 54 36 54.0625 38 C52.5910522 40.7697841 50.51990799 42.19083529 48 44 C46.2925002 42.71937515 44.62626404 41.38232443 43 40 C43 39.34 43 38.68 43 38 C42.34 38 41.68 38 41 38 C39.375 36.625 39.375 36.625 38 35 C38 34.34 38 33.68 38 33 C37.42217773 32.72687988 36.84435547 32.45375977 36.24902344 32.17236328 C34.01601469 31.00834808 32.0600058 29.7096595 30.015625 28.2421875 C20.0365945 21.18472223 10.12222708 15.07787195 -1 10 C-0.67 9.34 -0.34 8.68 0 8 C0.0689472 6.62657169 0.08467708 5.24997898 0.0625 3.875 C0.041875 2.59625 0.02125 1.3175 0 0 Z " fill="#726B68" transform="translate(324,113)"/>
<path d="M0 0 C5.03708372 0.87270483 7.12215573 4.01090138 10.3125 7.75 C10.87517578 8.37132812 11.43785156 8.99265625 12.01757812 9.6328125 C15.96083236 14.20833883 15.96083236 14.20833883 16.12890625 17.60546875 C14.6785089 20.68191712 12.84195979 22.98322154 10.625 25.5625 C7.99235828 28.65392457 5.39354157 31.71853172 3 35 C-1.28904235 33.4114658 -3.32345526 30.56872632 -6 27 C-6 26.34 -6 25.68 -6 25 C-6.66 25 -7.32 25 -8 25 C-10.52553516 21.9693578 -12.04304631 20.13611501 -11.890625 16.11328125 C-10.81683874 12.35973893 -9.26610937 10.60262487 -6.5625 7.8125 C-4.10874272 5.24846149 -1.97222532 2.95833798 0 0 Z " fill="#554D4A" transform="translate(331,233)"/>
<path d="M0 0 C0.495 0.99 0.495 0.99 1 2 C1.99 2.66 2.98 3.32 4 4 C3.67 5.65 3.34 7.3 3 9 C0.29144546 8.6893306 -2.41683388 8.37652255 -5.125 8.0625 C-5.88554687 7.97548828 -6.64609375 7.88847656 -7.4296875 7.79882812 C-8.17734375 7.71181641 -8.925 7.62480469 -9.6953125 7.53515625 C-10.37609863 7.456604 -11.05688477 7.37805176 -11.75830078 7.29711914 C-13.44031181 7.07418215 -15.11422975 6.78873453 -16.78125 6.47265625 C-20.47422397 5.93036274 -24.08299951 5.87454 -27.8046875 5.90234375 C-28.8906572 5.90446617 -28.8906572 5.90446617 -29.99856567 5.90663147 C-32.29075407 5.91218925 -34.58284157 5.92473367 -36.875 5.9375 C-38.43749858 5.94252047 -39.99999871 5.94708241 -41.5625 5.95117188 C-45.37503835 5.96214481 -49.18750212 5.9793799 -53 6 C-52.979375 5.21625 -52.95875 4.4325 -52.9375 3.625 C-52.81315937 1.01885039 -52.81315937 1.01885039 -54 -1 C-37.38431815 -6.41815712 -16.47006804 -5.55864796 0 0 Z " fill="#675F5B" transform="translate(298,135)"/>
<path d="M0 0 C0.66 0.33 1.32 0.66 2 1 C1.99476318 2.21993652 1.98952637 3.43987305 1.98413086 4.69677734 C1.96590433 9.26285048 1.95450401 13.82892047 1.94506836 18.39501953 C1.94006824 20.36377505 1.93326598 22.33252691 1.92456055 24.30126953 C1.91230427 27.14616809 1.90672833 29.99101717 1.90234375 32.8359375 C1.89718246 33.70302338 1.89202118 34.57010925 1.88670349 35.46347046 C1.886173 41.3639927 2.31065645 47.14065307 3 53 C2.38125 53.268125 1.7625 53.53625 1.125 53.8125 C-1.2995233 54.95556848 -1.2995233 54.95556848 -3 58 C-9.11178481 40.63116038 -8.68947142 23.16181779 -7 5 C-6.34 5 -5.68 5 -5 5 C-4.67 4.01 -4.34 3.02 -4 2 C-2.0625 0.75 -2.0625 0.75 0 0 Z " fill="#5C5450" transform="translate(128,225)"/>
<path d="M0 0 C2.84383123 1.2748209 5.13754018 2.45137078 7 5 C6.38159263 10.07094046 2.7834866 12.03096257 -1 15 C-1.56589844 15.48597656 -2.13179688 15.97195313 -2.71484375 16.47265625 C-11.29797246 23.51570498 -25.64862389 31 -37 31 C-37 30.34 -37 29.68 -37 29 C-35.02 28.67 -33.04 28.34 -31 28 C-31.185625 27.38125 -31.37125 26.7625 -31.5625 26.125 C-32 24 -32 24 -31 22 C-29.68 22 -28.36 22 -27 22 C-28.65 21.67 -30.3 21.34 -32 21 C-29.91396271 18.91396271 -28.435619 18.19977743 -25.75 17.0625 C-19.87607187 14.56101682 -14.5373077 11.85061593 -9.375 8.0625 C-8.45460938 7.39347656 -7.53421875 6.72445313 -6.5859375 6.03515625 C-4.19959687 4.15708455 -2.09268952 2.19585028 0 0 Z " fill="#89837F" transform="translate(325,306)"/>
<path d="M0 0 C27.44175985 0.0564065 27.44175985 0.0564065 35.11328125 5.5703125 C36.11328125 7.1328125 36.11328125 7.1328125 35.80078125 9.3203125 C35.57390625 9.9184375 35.34703125 10.5165625 35.11328125 11.1328125 C32.18831218 12.02332213 30.10884157 12.16519129 27.109375 11.609375 C26.36880859 11.4753125 25.62824219 11.34125 24.86523438 11.203125 C24.10146484 11.05617187 23.33769531 10.90921875 22.55078125 10.7578125 C21.78314453 10.61859375 21.01550781 10.479375 20.22460938 10.3359375 C17.10753883 9.75980938 14.12385302 9.13633642 11.11328125 8.1328125 C8.94950755 7.93204999 6.78204047 7.7695811 4.61328125 7.6328125 C1.17524567 7.41599945 -1.6149868 7.22338982 -4.88671875 6.1328125 C-3.81748179 0.17563516 -3.81748179 0.17563516 0 0 Z " fill="#58504C" transform="translate(264.88671875,161.8671875)"/>
<path d="M0 0 C10.53596395 1.54184838 20.68631833 8.69769293 29 15 C28.67 15.66 28.34 16.32 28 17 C26.68 17 25.36 17 24 17 C25.84548319 22.73071096 27.44480217 26.06036945 32 30 C28.63571136 29.42843268 27.26540742 28.50268928 25.0625 25.9375 C16.24752973 16.74501495 3.1135674 10.60133085 -9 7 C-5.89139894 6.0008068 -4.11388708 6.16963011 -1 7 C1.17517521 6.19269273 1.17517521 6.19269273 1.75 4.0625 C1.8325 3.381875 1.915 2.70125 2 2 C1.34 1.34 0.68 0.68 0 0 Z " fill="#726C68" transform="translate(298,166)"/>
<path d="M0 0 C1.875 0.3125 1.875 0.3125 4 1 C6 4 6 4 5.85473633 5.9284668 C4.03000833 10.35086527 0.02440096 13.48656667 -3.3125 16.8125 C-4.08529297 17.61365234 -4.85808594 18.41480469 -5.65429688 19.24023438 C-6.40388672 19.99240234 -7.15347656 20.74457031 -7.92578125 21.51953125 C-8.61067627 22.21151611 -9.29557129 22.90350098 -10.0012207 23.61645508 C-12 25 -12 25 -14.12182617 24.81518555 C-16.86612566 23.62407467 -18.16417049 22.38657836 -20 20 C-20.90511152 17.34059931 -21.4466522 14.76673898 -22 12 C-19.03 12.33 -16.06 12.66 -13 13 C-13 12.34 -13 11.68 -13 11 C-9.45425237 7.33163286 -5.37812331 4.57536665 -1 2 C-0.67 1.34 -0.34 0.68 0 0 Z " fill="#655F5B" transform="translate(343,170)"/>
<path d="M0 0 C0.33 0.66 0.66 1.32 1 2 C2.98 1.67 4.96 1.34 7 1 C7 1.66 7 2.32 7 3 C6.34 3 5.68 3 5 3 C4.85884766 4.10408203 4.85884766 4.10408203 4.71484375 5.23046875 C3.89467004 8.40808164 2.75090067 9.89661485 0.5625 12.3125 C-0.05496094 13.00988281 -0.67242187 13.70726562 -1.30859375 14.42578125 C-3 16 -3 16 -5 16 C-5.99 18.475 -5.99 18.475 -7 21 C-7.66 21 -8.32 21 -9 21 C-9.226875 21.804375 -9.45375 22.60875 -9.6875 23.4375 C-11 26 -11 26 -13.375 26.8125 C-15.57860331 26.96990024 -17.79078241 27 -20 27 C-19.75682719 20.19116129 -17.87854767 15.86560723 -13 11 C-12.34 11 -11.68 11 -11 11 C-11 10.34 -11 9.68 -11 9 C-10.34 9 -9.68 9 -9 9 C-8.690625 8.13375 -8.690625 8.13375 -8.375 7.25 C-6.50122558 4.18382368 -4.02419977 2.86599561 -1 1 C-0.67 0.67 -0.34 0.34 0 0 Z " fill="#665F5B" transform="translate(190,162)"/>
<path d="M0 0 C0.66 0.66 1.32 1.32 2 2 C0.35 3.65 -1.3 5.3 -3 7 C-2.34 7.33 -1.68 7.66 -1 8 C-1.99 9.485 -1.99 9.485 -3 11 C-1.7625 11.495 -1.7625 11.495 -0.5 12 C4.17066277 14.29063605 7.49130593 18.25086242 11 22 C8 22 8 22 6.17578125 20.46875 C5.56089844 19.8190625 4.94601562 19.169375 4.3125 18.5 C3.68988281 17.8503125 3.06726563 17.200625 2.42578125 16.53125 C1.95527344 16.0259375 1.48476563 15.520625 1 15 C-3.3504273 17.34253778 -6.55265791 19.44145333 -10 23 C-15.55555556 27 -15.55555556 27 -18 27 C-18 26.34 -18 25.68 -18 25 C-18.66 24.67 -19.32 24.34 -20 24 C-20.66 23.67 -21.32 23.34 -22 23 C-23.99960012 22.960008 -26.00047242 22.95653201 -28 23 C-25.23859663 19.93286983 -21.87568757 17.76152058 -18.5 15.4375 C-11.82765697 10.77332093 -5.87337872 5.63364898 0 0 Z " fill="#807A76" transform="translate(349,324)"/>
<path d="M0 0 C2 3 2 3 2.0234375 4.96875 C0.39584009 8.19909601 -2.16511068 8.96816562 -5.375 10.5 C-6.0026123 10.79970703 -6.63022461 11.09941406 -7.27685547 11.40820312 C-22.9532016 18.7675423 -22.9532016 18.7675423 -28 17 C-27.01 16.34 -26.02 15.68 -25 15 C-24.27034634 12.43717258 -24.27034634 12.43717258 -24 10 C-28.455 10.495 -28.455 10.495 -33 11 C-30.03291558 9.02194372 -27.69362195 8.17267159 -24.3125 7.125 C-20.54926285 5.91002501 -17.01229874 4.63148711 -13.5 2.8125 C-8.87091993 0.41529782 -5.24303568 -0.45591615 0 0 Z " fill="#756F6B" transform="translate(329,346)"/>
<path d="M0 0 C0.66 0 1.32 0 2 0 C3.26953125 1.29296875 3.26953125 1.29296875 4.8125 3.1875 C7.20382155 6.04280932 9.68353589 8.69355923 12.38671875 11.25 C12.98057373 11.8169458 13.57442871 12.3838916 14.1862793 12.96801758 C15.3857911 14.1052045 16.59683517 15.23036135 17.81958008 16.3425293 C19.5 17.94921875 19.5 17.94921875 22 21 C21.875 23.89453125 21.875 23.89453125 21 26 C20.01 26.33 19.02 26.66 18 27 C18 28.65 18 30.3 18 32 C16.68 32 15.36 32 14 32 C14.33 29.36 14.66 26.72 15 24 C14.1028125 23.9071875 14.1028125 23.9071875 13.1875 23.8125 C10.10102819 22.66609618 9.63519595 20.83014683 8 18 C4.50126848 13.73885833 1.496684 11.30873429 -4 10 C-3.67 9.4225 -3.34 8.845 -3 8.25 C-1.72924102 5.80116138 -1.72924102 5.80116138 -2 2 C-1.34 1.34 -0.68 0.68 0 0 Z " fill="#4C4540" transform="translate(349,326)"/>
<path d="M0 0 C5.95982408 4.9489991 11.45942623 10.27609206 16.9375 15.75 C17.81212891 16.61238281 18.68675781 17.47476562 19.58789062 18.36328125 C20.82635742 19.59884766 20.82635742 19.59884766 22.08984375 20.859375 C22.84128662 21.60670898 23.59272949 22.35404297 24.36694336 23.12402344 C26 25 26 25 26 27 C24.35546875 28.69140625 24.35546875 28.69140625 22.1875 30.5625 C21.47980469 31.18253906 20.77210938 31.80257813 20.04296875 32.44140625 C18 34 18 34 15 35 C14.67 35.99 14.34 36.98 14 38 C12.37667033 39.38576923 10.71275535 40.72641268 9 42 C6.22017379 40.6100869 6.12536659 38.81341647 5 36 C4.34 35.67 3.68 35.34 3 35 C2.67 35.99 2.34 36.98 2 38 C-0.475 38.495 -0.475 38.495 -3 39 C0.16474305 35.74483572 3.32752791 32.67991207 7 30 C7.66 30 8.32 30 9 30 C9 29.34 9 28.68 9 28 C9.66 28 10.32 28 11 28 C11 26.68 11 25.36 11 24 C11.66 24 12.32 24 13 24 C13 26.64 13 29.28 13 32 C13.66 32 14.32 32 15 32 C15.103125 31.21625 15.20625 30.4325 15.3125 29.625 C16 27 16 27 19 25 C18.50810275 20.577771 17.15262585 18.68895746 13.96484375 15.64453125 C13.15595703 14.85755859 12.34707031 14.07058594 11.51367188 13.25976562 C10.66353516 12.45216797 9.81339844 11.64457031 8.9375 10.8125 C7.25485929 9.19843483 5.57624018 7.58016306 3.90234375 5.95703125 C3.15460693 5.24522705 2.40687012 4.53342285 1.63647461 3.80004883 C0 2 0 2 0 0 Z " fill="#857E7B" transform="translate(351,326)"/>
<path d="M0 0 C0.33 0.99 0.66 1.98 1 3 C1.99 3 2.98 3 4 3 C4.33 3.99 4.66 4.98 5 6 C5.66 6.0825 6.32 6.165 7 6.25 C11.69482741 7.42370685 16.35781039 8.86835554 19.40234375 12.8203125 C20.5 14.75 20.5 14.75 22 18 C21.01 19.32 20.02 20.64 19 22 C13.69321581 19.91957689 9.24921523 17.38030048 4.625 14.0625 C3.99722656 13.63259766 3.36945313 13.20269531 2.72265625 12.75976562 C-1.78519053 9.55169756 -1.78519053 9.55169756 -2.77197266 7.01733398 C-3.11229932 4.00649968 -1.67624355 2.41379072 0 0 Z " fill="#605955" transform="translate(176,356)"/>
<path d="M0 0 C0 0.66 0 1.32 0 2 C-1.63631892 3.04892238 -3.30485863 4.04906703 -5 5 C-5.33 5.33 -5.66 5.66 -6 6 C-5.67 6.66 -5.34 7.32 -5 8 C-2.67843403 8.40729228 -0.3431213 8.74438677 2 9 C0.40872304 12.18255391 -2.82518494 13.01546807 -5.9375 14.4375 C-6.95215332 14.90555054 -6.95215332 14.90555054 -7.98730469 15.38305664 C-20.41038404 21 -20.41038404 21 -27 21 C-27 20.34 -27 19.68 -27 19 C-25.02 18.67 -23.04 18.34 -21 18 C-21.185625 17.38125 -21.37125 16.7625 -21.5625 16.125 C-22 14 -22 14 -21 12 C-19.68 12 -18.36 12 -17 12 C-18.65 11.67 -20.3 11.34 -22 11 C-19.91396271 8.91396271 -18.435619 8.19977743 -15.75 7.0625 C-11.19735728 5.09359181 -4.6767242 0 0 0 Z " fill="#7E7674" transform="translate(315,316)"/>
<path d="M0 0 C2.25 1.3046875 2.25 1.3046875 3.0625 3.4296875 C3.124375 4.0484375 3.18625 4.6671875 3.25 5.3046875 C4.57 4.9746875 5.89 4.6446875 7.25 4.3046875 C4.49829249 7.2602252 1.83029701 9.42032065 -1.75 11.3046875 C-2.41 11.3046875 -3.07 11.3046875 -3.75 11.3046875 C-3.75 11.9646875 -3.75 12.6246875 -3.75 13.3046875 C-5.73 14.2946875 -7.71 15.2846875 -9.75 16.3046875 C-9.75 15.6446875 -9.75 14.9846875 -9.75 14.3046875 C-12.69729537 13.14657362 -12.69729537 13.14657362 -15.75 13.3046875 C-17.44287785 14.25964424 -19.10857037 15.2637809 -20.75 16.3046875 C-22.07608822 16.98565172 -23.40686601 17.65799336 -24.75 18.3046875 C-23.13405168 16.26348962 -21.4643618 14.26395813 -19.75 12.3046875 C-19.09 12.3046875 -18.43 12.3046875 -17.75 12.3046875 C-17.75 11.6446875 -17.75 10.9846875 -17.75 10.3046875 C-14.28846154 7.3046875 -14.28846154 7.3046875 -11.75 7.3046875 C-11.75 6.6446875 -11.75 5.9846875 -11.75 5.3046875 C-9.95703125 3.7265625 -9.95703125 3.7265625 -7.5625 2.0546875 C-6.78519531 1.49265625 -6.00789063 0.930625 -5.20703125 0.3515625 C-2.75 -0.6953125 -2.75 -0.6953125 0 0 Z " fill="#706A65" transform="translate(188.75,126.6953125)"/>
<path d="M0 0 C3.29429258 1.45096932 5.57230311 3.29200074 8.1875 5.75 C12.50460112 9.67985284 17.05437413 12.91336825 22 16 C21.401875 16.28875 20.80375 16.5775 20.1875 16.875 C17.94039155 18.03065577 15.80296495 19.19703505 14 21 C15.65 21.99 17.3 22.98 19 24 C12.67719982 24 7.54738827 18.99282872 3 15 C6 15 6 15 8 16 C6.40639347 9.44418777 4.73935838 4.86744914 0 0 Z " fill="#76706C" transform="translate(191,328)"/>
<path d="M0 0 C2 1 2 1 4 3 C3.82053032 5.69204517 3.01601888 6.97905223 1.375 9.125 C-1.58501373 11.46185295 -4.37802849 12.06097035 -8 13 C-8.66 13.66 -9.32 14.32 -10 15 C-11.67422986 14.70700977 -13.34178227 14.37309899 -15 14 C-15.99 14.495 -15.99 14.495 -17 15 C-16.75 13.125 -16.75 13.125 -16 11 C-13.9375 9.75 -13.9375 9.75 -12 9 C-12 8.34 -12 7.68 -12 7 C-9.8125 5.5625 -9.8125 5.5625 -7 4 C-6.113125 3.46375 -5.22625 2.9275 -4.3125 2.375 C-2.90193316 1.53628458 -1.46782625 0.73391312 0 0 Z " fill="#5E5754" transform="translate(175,138)"/>
<path d="M0 0 C2.95012764 0.331402 3.87526641 0.85553008 5.8515625 3.14453125 C6.43679687 4.02496094 7.02203125 4.90539062 7.625 5.8125 C8.21539062 6.68519531 8.80578125 7.55789063 9.4140625 8.45703125 C10.7499951 10.59913008 11.92575667 12.71856244 13 15 C11.35 13.68 9.7 12.36 8 11 C8 11.66 8 12.32 8 13 C6.35 13.33 4.7 13.66 3 14 C3.33 14.99 3.66 15.98 4 17 C3.34 17 2.68 17 2 17 C0.37322909 14.86229382 -1.13979644 12.7324466 -2.625 10.5 C-3.04523438 9.87996094 -3.46546875 9.25992187 -3.8984375 8.62109375 C-4.93837167 7.08482736 -5.96997056 5.54292476 -7 4 C-6.67 3.34 -6.34 2.68 -6 2 C-4.35 2.33 -2.7 2.66 -1 3 C-0.67 2.01 -0.34 1.02 0 0 Z " fill="#78716D" transform="translate(149,325)"/>
<path d="M0 0 C0.66 0 1.32 0 2 0 C2 0.66 2 1.32 2 2 C2.66 2 3.32 2 4 2 C5.25106957 3.44860687 6.49699773 4.90276867 7.69140625 6.3984375 C9.33072334 8.40476588 11.13506951 10.20414101 13 12 C11.35 11.34 9.7 10.68 8 10 C8 10.66 8 11.32 8 12 C7.34 12 6.68 12 6 12 C6.65585189 15.60992379 6.65585189 15.60992379 8 19 C5.05043472 17.63055898 2.47531189 16.12169591 0 14 C0 13.34 0 12.68 0 12 C-0.66 12 -1.32 12 -2 12 C-2 11.34 -2 10.68 -2 10 C-2.66 10 -3.32 10 -4 10 C-4 9.34 -4 8.68 -4 8 C-4.66 8 -5.32 8 -6 8 C-6.33 7.01 -6.66 6.02 -7 5 C-3.535 4.505 -3.535 4.505 0 4 C0 2.68 0 1.36 0 0 Z " fill="#7A7672" transform="translate(207,302)"/>
<path d="M0 0 C3.76119476 0.62393651 6.18960042 2.34773715 9.25 4.5625 C10.14203125 5.20316406 11.0340625 5.84382812 11.953125 6.50390625 C12.96632813 7.24447266 12.96632813 7.24447266 14 8 C13.67 8.66 13.34 9.32 13 10 C11.68 10 10.36 10 9 10 C10.84548319 15.73071096 12.44480217 19.06036945 17 23 C13.56840419 22.42682673 12.11117318 21.38360852 9.8125 18.8125 C5.99073124 14.79133461 1.69892916 11.90886091 -3 9 C-1.35 6.69 0.3 4.38 2 2 C1.34 1.34 0.68 0.68 0 0 Z " fill="#7E7773" transform="translate(313,173)"/>
<path d="M0 0 C4.08641257 0.73266488 7.59474154 2.68657975 11.25 4.5625 C11.8996875 4.89185547 12.549375 5.22121094 13.21875 5.56054688 C14.81434294 6.37007565 16.40742483 7.18455042 18 8 C15.50907189 9.24546405 14.58919267 8.7767578 12 8 C11.67 9.65 11.34 11.3 11 13 C11.99 13.33 12.98 13.66 14 14 C14.33 14.99 14.66 15.98 15 17 C11.34061828 15.56835889 7.76011932 14.01065704 4.1875 12.375 C3.21167969 11.92898437 2.23585938 11.48296875 1.23046875 11.0234375 C0.49441406 10.68570313 -0.24164063 10.34796875 -1 10 C-0.67 9.34 -0.34 8.68 0 8 C0.0689472 6.62657169 0.08467708 5.24997898 0.0625 3.875 C0.041875 2.59625 0.02125 1.3175 0 0 Z " fill="#7A7370" transform="translate(324,113)"/>
<path d="M0 0 C1.98 0.66 3.96 1.32 6 2 C6 2.99 6 3.98 6 5 C6.928125 5.103125 7.85625 5.20625 8.8125 5.3125 C12.03900374 6.00841257 13.19738575 6.29607863 15 9 C15 13 15 13 14 15 C10.45436862 15.4171331 8.95676103 14.97671748 5.75 13.25 C3 11 3 11 2.125 8.75 C2.08375 8.1725 2.0425 7.595 2 7 C0.68 6.67 -0.64 6.34 -2 6 C-1.125 1.125 -1.125 1.125 0 0 Z " fill="#574F4C" transform="translate(336,120)"/>
<path d="M0 0 C5.53205598 0.85108554 10.60890828 4.6594026 14 9 C14.0625 11 14.0625 11 13 13 C10.4375 15.25 10.4375 15.25 8 17 C2.97309637 14.01103027 1.94131009 10.70702326 0.48046875 5.33984375 C0 3 0 3 0 0 Z " fill="#6F6864" transform="translate(364,140)"/>
<path d="M0 0 C0.33 0.66 0.66 1.32 1 2 C1.66 2 2.32 2 3 2 C3.25 5.3125 3.25 5.3125 3 9 C1.125 10.9375 1.125 10.9375 -1 12 C-1.66 12 -2.32 12 -3 12 C-3 12.66 -3 13.32 -3 14 C-5.5 15.625 -5.5 15.625 -8 17 C-9.6875 14.3125 -9.6875 14.3125 -11 11 C-9.46998035 7.03994914 -7.74471937 5.70214517 -4 4 C-2.62913085 2.70529025 -1.28659163 1.37849103 0 0 Z " fill="#4E4643" transform="translate(220,176)"/>
<path d="M0 0 C3.49838884 1.891021 6.07732434 3.45822905 8 7 C8.1875 10.25 8.1875 10.25 8 13 C5.8125 14.1875 5.8125 14.1875 3 15 C0.3125 14.0625 0.3125 14.0625 -2 12 C-3.5625 8.625 -3.5625 8.625 -4 5 C-2.125 2.0625 -2.125 2.0625 0 0 Z " fill="#68645F" transform="translate(199,293)"/>
<path d="M0 0 C2 1 2 1 3 2 C4.65816784 2.68753301 6.32459336 3.35561283 8 4 C8.33 3.34 8.66 2.68 9 2 C9.99 3.485 9.99 3.485 11 5 C9.54634731 6.17249353 8.08692581 7.33783816 6.625 8.5 C5.81289062 9.1496875 5.00078125 9.799375 4.1640625 10.46875 C2 12 2 12 0 12 C0 12.66 0 13.32 0 14 C-0.66 13.67 -1.32 13.34 -2 13 C-1.67 12.01 -1.34 11.02 -1 10 C-0.34 10 0.32 10 1 10 C1 9.34 1 8.68 1 8 C0.05125 8.165 -0.8975 8.33 -1.875 8.5 C-5 9 -5 9 -7 9 C-8.34882408 9.63474075 -9.6846659 10.29848848 -11 11 C-9.38405168 8.95880212 -7.7143618 6.95927063 -6 5 C-5.34 5 -4.68 5 -4 5 C-4 4.34 -4 3.68 -4 3 C-2 1.375 -2 1.375 0 0 Z " fill="#757069" transform="translate(196,155)"/>
<path d="M0 0 C2.31138807 2.31138807 3.60400982 4.6414429 5.1875 7.5 C5.73792969 8.4796875 6.28835937 9.459375 6.85546875 10.46875 C7.42201172 11.72171875 7.42201172 11.72171875 8 13 C7.67 13.66 7.34 14.32 7 15 C6.34 14.67 5.68 14.34 5 14 C2.53176154 17.34401469 2.53176154 17.34401469 2.3125 21.3125 C2.539375 21.869375 2.76625 22.42625 3 23 C-0.74590334 19.64840228 -3.27389492 17.08273556 -4 12 C-2.7260411 9.96166576 -1.38938077 7.96147874 0 6 C0.33594133 2.74822148 0.33594133 2.74822148 0 0 Z " fill="#7F7874" transform="translate(194,280)"/>
<path d="M0 0 C1.32176485 0.90325616 2.63215066 1.82317903 3.9375 2.75 C4.66839844 3.26046875 5.39929688 3.7709375 6.15234375 4.296875 C8.20805399 6.19177915 8.62669176 7.27425729 9 10 C8.34 10 7.68 10 7 10 C7 10.99 7 11.98 7 13 C4.69 13 2.38 13 0 13 C-4.06153846 6.6 -4.06153846 6.6 -3.75 3.5625 C-3.5025 3.046875 -3.255 2.53125 -3 2 C-2.01 2 -1.02 2 0 2 C0 1.34 0 0.68 0 0 Z " fill="#68615D" transform="translate(156,335)"/>
<path d="M0 0 C0.66 0.33 1.32 0.66 2 1 C1.236875 1.7425 0.47375 2.485 -0.3125 3.25 C-2.4393702 5.4263323 -4.2559956 7.52167796 -6 10 C-5.01 11.485 -5.01 11.485 -4 13 C-4.34641839 16.46418389 -5.03286587 18.04929881 -7 21 C-9.7839183 19.60804085 -9.97898997 17.84424221 -11 15 C-11.61875 15.309375 -12.2375 15.61875 -12.875 15.9375 C-14.25 16.625 -15.625 17.3125 -17 18 C-15.79618552 15.50638429 -14.54571278 13.31856917 -13 11 C-12.34 11 -11.68 11 -11 11 C-11 10.34 -11 9.68 -11 9 C-5.52380952 4 -5.52380952 4 -3 4 C-3 3.34 -3 2.68 -3 2 C-2.01 2 -1.02 2 0 2 C0 1.34 0 0.68 0 0 Z " fill="#79746F" transform="translate(216,177)"/>
<path d="M0 0 C2.31 1.98 4.62 3.96 7 6 C6.67 7.65 6.34 9.3 6 11 C5.01 11.33 4.02 11.66 3 12 C3 13.65 3 15.3 3 17 C1.68 17 0.36 17 -1 17 C-0.67 14.36 -0.34 11.72 0 9 C-1.32 8.67 -2.64 8.34 -4 8 C-4 4.99472353 -2.05564773 4.05564773 0 2 C0 1.34 0 0.68 0 0 Z " fill="#534C48" transform="translate(364,341)"/>
<path d="M0 0 C0.66 0.33 1.32 0.66 2 1 C0.02 1.99 0.02 1.99 -2 3 C-1.67 4.32 -1.34 5.64 -1 7 C1.31 7.33 3.62 7.66 6 8 C3.28390082 10.71609918 0.13404955 11.46920222 -3.4375 12.625 C-4.11876953 12.85445313 -4.80003906 13.08390625 -5.50195312 13.3203125 C-8.44982818 14.29042613 -10.87666842 15 -14 15 C-14 14.34 -14 13.68 -14 13 C-12.02 12.67 -10.04 12.34 -8 12 C-8.185625 11.38125 -8.37125 10.7625 -8.5625 10.125 C-9 8 -9 8 -8 6 C-6.68 6 -5.36 6 -4 6 C-5.65 5.67 -7.3 5.34 -9 5 C-6.32239719 2.32239719 -3.52050129 1.32018799 0 0 Z " fill="#807874" transform="translate(302,322)"/>
<path d="M0 0 C4.97209562 1.76429199 9.43438061 4.3939166 14 7 C13.35546875 7.26554687 12.7109375 7.53109375 12.046875 7.8046875 C11.03367188 8.39636719 11.03367188 8.39636719 10 9 C9.18415432 12.05908413 9.18415432 12.05908413 9 15 C5.40608886 13.66511872 2.24509304 12.03977277 -1 10 C0.32 8.68 1.64 7.36 3 6 C2.01 4.02 1.02 2.04 0 0 Z " fill="#746F6B" transform="translate(194,368)"/>
<path d="M0 0 C0.99 0.33 1.98 0.66 3 1 C2.67 1.99 2.34 2.98 2 4 C2.66 4 3.32 4 4 4 C3.67 6.31 3.34 8.62 3 11 C-0.153368 11.70074844 -2.72724974 12 -6 12 C-5.63421419 4.68428373 -5.63421419 4.68428373 -2.625 1.4375 C-1.75875 0.963125 -0.8925 0.48875 0 0 Z " fill="#5D5953" transform="translate(176,177)"/>
<path d="M0 0 C2.64 0 5.28 0 8 0 C8.33 0.66 8.66 1.32 9 2 C9.99 2.66 10.98 3.32 12 4 C11.67 5.65 11.34 7.3 11 9 C9.56206608 8.68950274 8.1246682 8.3765224 6.6875 8.0625 C5.88699219 7.88847656 5.08648437 7.71445313 4.26171875 7.53515625 C2 7 2 7 -1 6 C-0.67 4.02 -0.34 2.04 0 0 Z " fill="#4E4643" transform="translate(290,135)"/>
<path d="M0 0 C4.5929708 3.52127761 5.11941917 7.57747597 6 13 C3.69 12.34 1.38 11.68 -1 11 C-1 10.34 -1 9.68 -1 9 C-1.639375 8.71125 -2.27875 8.4225 -2.9375 8.125 C-5 7 -5 7 -6 5 C-5.195625 4.54625 -4.39125 4.0925 -3.5625 3.625 C-0.91143428 2.25274335 -0.91143428 2.25274335 0 0 Z " fill="#69625D" transform="translate(193,331)"/>
<path d="M0 0 C0.99 0.33 1.98 0.66 3 1 C3 2.32 3 3.64 3 5 C3.66 5.33 4.32 5.66 5 6 C3.35 7.65 1.7 9.3 0 11 C-0.598125 10.67 -1.19625 10.34 -1.8125 10 C-4.05386471 8.79212012 -4.05386471 8.79212012 -7 9 C-7.66 8.67 -8.32 8.34 -9 8 C-4.375 3.125 -4.375 3.125 -1 2 C-0.67 1.34 -0.34 0.68 0 0 Z " fill="#57504B" transform="translate(354,361)"/>
<path d="M0 0 C4 2 4 2 6 5 C4.02 6.65 2.04 8.3 0 10 C-0.33 9.01 -0.66 8.02 -1 7 C-1.66 7 -2.32 7 -3 7 C-2.67 7.99 -2.34 8.98 -2 10 C-2.99 10 -3.98 10 -5 10 C-5.99 9.01 -6.98 8.02 -8 7 C-5.36 4.69 -2.72 2.38 0 0 Z " fill="#4C4541" transform="translate(325,308)"/>
<path d="M0 0 C3.39094623 1.49078046 5.82826712 3.4530955 8.5625 5.9375 C9.32691406 6.62714844 10.09132812 7.31679688 10.87890625 8.02734375 C12.62531147 9.65153277 14.32998738 11.29797436 16 13 C15.21625 13.0825 14.4325 13.165 13.625 13.25 C10.85250896 13.72806339 10.85250896 13.72806339 9.6875 16.0625 C9.460625 16.701875 9.23375 17.34125 9 18 C7.125 17.6875 7.125 17.6875 5 17 C4.34 16.01 3.68 15.02 3 14 C5.475 14.99 5.475 14.99 8 16 C6.40639347 9.44418777 4.73935838 4.86744914 0 0 Z " fill="#97928E" transform="translate(191,328)"/>
<path d="M0 0 C1.875 0.3125 1.875 0.3125 4 1 C4.66 1.99 5.32 2.98 6 4 C5.67 4.99 5.34 5.98 5 7 C5 6.34 5 5.68 5 5 C4.01 5 3.02 5 2 5 C1.67 5.99 1.34 6.98 1 8 C0.34 8 -0.32 8 -1 8 C-1 8.99 -1 9.98 -1 11 C-1.99 10.67 -2.98 10.34 -4 10 C-4.66 11.32 -5.32 12.64 -6 14 C-6.33 11.36 -6.66 8.72 -7 6 C-6.030625 5.38125 -5.06125 4.7625 -4.0625 4.125 C-0.97164638 2.34321154 -0.97164638 2.34321154 0 0 Z " fill="#544D48" transform="translate(343,170)"/>
<path d="M0 0 C0.66 0.66 1.32 1.32 2 2 C1.01 2 0.02 2 -1 2 C-1.2475 2.598125 -1.495 3.19625 -1.75 3.8125 C-3.7261646 7.27078804 -6.73168361 8.8211224 -10 11 C-11 8 -12 5 -13 2 C-10.03 2.33 -7.06 2.66 -4 3 C-4 2.34 -4 1.68 -4 1 C-2.125 0.375 -2.125 0.375 0 0 Z " fill="#5D5552" transform="translate(334,180)"/>
<path d="M0 0 C1.1875 2.0625 1.1875 2.0625 2 4 C1.01 5.32 0.02 6.64 -1 8 C-7.64615385 5.66153846 -7.64615385 5.66153846 -9.4375 2.3125 C-9.623125 1.549375 -9.80875 0.78625 -10 0 C-3.375 -1.125 -3.375 -1.125 0 0 Z " fill="#5A534F" transform="translate(196,370)"/>
<path d="M0 0 C3 2 3 2 4 4 C2.5273138 7.27263601 1.57304568 8.72014048 -1.6875 10.3125 C-2.450625 10.539375 -3.21375 10.76625 -4 11 C-4.33 9.35 -4.66 7.7 -5 6 C-5.99 6.495 -5.99 6.495 -7 7 C-7 6.01 -7 5.02 -7 4 C-6.030625 3.525625 -5.06125 3.05125 -4.0625 2.5625 C-1.19522563 1.29806053 -1.19522563 1.29806053 0 0 Z " fill="#4C4541" transform="translate(195,122)"/>
<path d="M0 0 C2 3.75 2 3.75 2 6 C1.01 6 0.02 6 -1 6 C-1.33 7.65 -1.66 9.3 -2 11 C-2.94875 10.814375 -3.8975 10.62875 -4.875 10.4375 C-7.89868793 9.71313368 -7.89868793 9.71313368 -10 11 C-9.75 9.125 -9.75 9.125 -9 7 C-6.9375 5.75 -6.9375 5.75 -5 5 C-5 4.34 -5 3.68 -5 3 C-2.5 1.375 -2.5 1.375 0 0 Z " fill="#645C5A" transform="translate(168,142)"/>
<path d="M0 0 C4.16907612 1.04226903 6.56538865 2.48128501 10 5 C10.33 5.66 10.66 6.32 11 7 C10.01 7.33 9.02 7.66 8 8 C8 8.66 8 9.32 8 10 C7.38125 9.814375 6.7625 9.62875 6.125 9.4375 C3.95839822 8.76313824 3.95839822 8.76313824 2 10 C1.34 6.7 0.68 3.4 0 0 Z " fill="#5C5451" transform="translate(364,140)"/>
<path d="M0 0 C0.625 2.0625 0.625 2.0625 1 4 C2.32 3.67 3.64 3.34 5 3 C2.22719294 6.08089673 -0.06326356 7.68775452 -4 9 C-7.07692308 4.56923077 -7.07692308 4.56923077 -6.6875 1.6875 C-6.460625 1.130625 -6.23375 0.57375 -6 0 C-2.25 -1.125 -2.25 -1.125 0 0 Z " fill="#6D6762" transform="translate(191,128)"/>
<path d="M0 0 C2.5 1.375 2.5 1.375 5 3 C5 3.66 5 4.32 5 5 C4.34 5 3.68 5 3 5 C3 5.99 3 6.98 3 8 C2.34 8 1.68 8 1 8 C1 8.99 1 9.98 1 11 C0.01 10.67 -0.98 10.34 -2 10 C-3.1875 7.4375 -3.1875 7.4375 -4 5 C-2.68 3.35 -1.36 1.7 0 0 Z " fill="#59534F" transform="translate(199,293)"/>
<path d="M0 0 C1.65 1.32 3.3 2.64 5 4 C4.58578031 8.83256305 2.53586014 10.82679218 -1 14 C-0.67 12.35 -0.34 10.7 0 9 C-0.66 8.67 -1.32 8.34 -2 8 C-1.125 1.125 -1.125 1.125 0 0 Z " fill="#837C79" transform="translate(342,244)"/>
<path d="M0 0 C0.66 0 1.32 0 2 0 C2.38937141 3.4069998 2.15388085 4.76368298 0.25 7.6875 C-1.81875332 9.81371869 -3.20512476 11.06837492 -6 12 C-6.66 11.67 -7.32 11.34 -8 11 C-8.33 11.99 -8.66 12.98 -9 14 C-10.65 14.33 -12.3 14.66 -14 15 C-10.83525695 11.74483572 -7.67247209 8.67991207 -4 6 C-3.34 6 -2.68 6 -2 6 C-2 5.34 -2 4.68 -2 4 C-1.34 4 -0.68 4 0 4 C0 2.68 0 1.36 0 0 Z " fill="#98938F" transform="translate(362,350)"/>
<path d="M0 0 C0.99 0 1.98 0 3 0 C2.43040847 3.62613199 1.07625466 5.25517741 -1.5625 7.75 C-2.52349609 8.67039063 -2.52349609 8.67039063 -3.50390625 9.609375 C-3.99761719 10.06828125 -4.49132812 10.5271875 -5 11 C-7 9 -7 9 -7.125 5.875 C-7.08375 4.92625 -7.0425 3.9775 -7 3 C-5.515 3.99 -5.515 3.99 -4 5 C-3.67 4.01 -3.34 3.02 -3 2 C-2.34 2 -1.68 2 -1 2 C-0.67 1.34 -0.34 0.68 0 0 Z " fill="#78736C" transform="translate(345,175)"/>
<path d="M0 0 C0.66 1.65 1.32 3.3 2 5 C0.68 5 -0.64 5 -2 5 C-2.33 5.66 -2.66 6.32 -3 7 C-3.66 7 -4.32 7 -5 7 C-5 6.34 -5 5.68 -5 5 C-5.99 5.33 -6.98 5.66 -8 6 C-8.33 5.01 -8.66 4.02 -9 3 C-6.38997624 -0.48003168 -4.1689578 -0.27793052 0 0 Z " fill="#4D4642" transform="translate(329,346)"/>
<path d="M0 0 C2.9375 1.3125 2.9375 1.3125 6 3 C6.33 3.99 6.66 4.98 7 6 C6.38125 6.28875 5.7625 6.5775 5.125 6.875 C2.86674235 7.93720042 2.86674235 7.93720042 1 10 C-0.625 7.8125 -0.625 7.8125 -2 5 C-1.1875 2.1875 -1.1875 2.1875 0 0 Z " fill="#4B4642" transform="translate(214,311)"/>
<path d="M0 0 C1.32 0.99 2.64 1.98 4 3 C4.99 2.34 5.98 1.68 7 1 C7.66 1.99 8.32 2.98 9 4 C7.68 5.65 6.36 7.3 5 9 C1.17053157 7.54744301 -0.12050295 5.57104439 -2 2 C-1.34 2 -0.68 2 0 2 C0 1.34 0 0.68 0 0 Z " fill="#807A75" transform="translate(329,259)"/>
<path d="M0 0 C0.33 0.66 0.66 1.32 1 2 C2.98 1.67 4.96 1.34 7 1 C7 1.66 7 2.32 7 3 C6.34 3 5.68 3 5 3 C4.814375 4.2065625 4.814375 4.2065625 4.625 5.4375 C4.41875 6.283125 4.2125 7.12875 4 8 C3.01 8.495 3.01 8.495 2 9 C0.68 7.35 -0.64 5.7 -2 4 C-1.34 2.68 -0.68 1.36 0 0 Z " fill="#524C46" transform="translate(190,162)"/>
<path d="M0 0 C3.26954202 0.56371414 4.82575883 1.49962266 7 4 C6.67 4.66 6.34 5.32 6 6 C3.525 5.01 3.525 5.01 1 4 C0.5875 4.45375 0.175 4.9075 -0.25 5.375 C-2.06408095 7.05950374 -3.75285627 7.99265971 -6 9 C-4.47291037 5.56404834 -2.40072955 2.88087546 0 0 Z " fill="#999491" transform="translate(331,233)"/>
<path d="M0 0 C3.14906415 1.41602213 5.49523672 3.13735082 8.0625 5.4375 C8.73410156 6.03433594 9.40570313 6.63117188 10.09765625 7.24609375 C11.7754479 8.79296942 13.40159243 10.37171566 15 12 C8.84765625 11.4140625 8.84765625 11.4140625 7 11 C6.67 10.34 6.34 9.68 6 9 C6.33 8.34 6.66 7.68 7 7 C6.01 7 5.02 7 4 7 C2.45220457 4.73783745 1.22387717 2.44775434 0 0 Z " fill="#9F9995" transform="translate(173,352)"/>
<path d="M0 0 C0.33 0.66 0.66 1.32 1 2 C0.34 2 -0.32 2 -1 2 C-1 2.66 -1 3.32 -1 4 C-1.66 4 -2.32 4 -3 4 C-3.2475 4.598125 -3.495 5.19625 -3.75 5.8125 C-5.16370012 8.28647521 -6.65055383 9.43370255 -9 11 C-8.49785005 6.60618791 -7.07786311 4.16580205 -4 1 C-1.75 0.1875 -1.75 0.1875 0 0 Z " fill="#8F8A86" transform="translate(171,149)"/>
<path d="M0 0 C0.33 0.66 0.66 1.32 1 2 C1.66 2.33 2.32 2.66 3 3 C2.01 4.485 2.01 4.485 1 6 C2.32 6 3.64 6 5 6 C5 6.66 5 7.32 5 8 C2.5 9.625 2.5 9.625 0 11 C-1.6875 8.3125 -1.6875 8.3125 -3 5 C-1.6875 2.125 -1.6875 2.125 0 0 Z " fill="#67605C" transform="translate(212,182)"/>
<path d="M0 0 C0.99 0.99 1.98 1.98 3 3 C1.8141763 6.37503669 0.72426311 8.64722731 -2 11 C-2.33 8.36 -2.66 5.72 -3 3 C-2.34 3 -1.68 3 -1 3 C-0.67 2.01 -0.34 1.02 0 0 Z " fill="#79736E" transform="translate(148,172)"/>
<path d="M0 0 C-0.33 0.99 -0.66 1.98 -1 3 C-3.31 3.33 -5.62 3.66 -8 4 C-8.66 2.68 -9.32 1.36 -10 0 C-3.375 -1.125 -3.375 -1.125 0 0 Z " fill="#4A443F" transform="translate(196,370)"/>
<path d="M0 0 C1.32 1.32 2.64 2.64 4 4 C3.6875 7.125 3.6875 7.125 3 10 C3.33 10.66 3.66 11.32 4 12 C2.68 12.33 1.36 12.66 0 13 C0 8.71 0 4.42 0 0 Z " fill="#4B4340" transform="translate(338,241)"/>
<path d="M0 0 C4.09305456 1.65296434 7.58983503 3.13546142 11 6 C8.1875 6.625 8.1875 6.625 5 7 C4.01 6.34 3.02 5.68 2 5 C2 4.01 2 3.02 2 2 C1.34 2 0.68 2 0 2 C0 1.34 0 0.68 0 0 Z " fill="#88827D" transform="translate(320,143)"/>
<path d="M0 0 C0.66 0.33 1.32 0.66 2 1 C2.6328125 3.06640625 2.6328125 3.06640625 3.125 5.5625 C3.29257813 6.38878906 3.46015625 7.21507812 3.6328125 8.06640625 C3.75398437 8.70449219 3.87515625 9.34257812 4 10 C1.525 9.01 1.525 9.01 -1 8 C-1.04241723 5.66705225 -1.04092937 3.33297433 -1 1 C-0.67 0.67 -0.34 0.34 0 0 Z " fill="#4B4440" transform="translate(195,334)"/>
<path d="M0 0 C0.99 0.99 1.98 1.98 3 3 C2.34 3 1.68 3 1 3 C1 3.99 1 4.98 1 6 C-0.65 6 -2.3 6 -4 6 C-4.66 4.68 -5.32 3.36 -6 2 C-5.34 1.67 -4.68 1.34 -4 1 C-3.01 1.33 -2.02 1.66 -1 2 C-0.67 1.34 -0.34 0.68 0 0 Z " fill="#4B4540" transform="translate(162,342)"/>
<path d="M0 0 C0.99 0.33 1.98 0.66 3 1 C3.75 3 3.75 3 4 5 C3 6 3 6 0.4375 6.0625 C-0.7690625 6.0315625 -0.7690625 6.0315625 -2 6 C-1.125 1.125 -1.125 1.125 0 0 Z " fill="#4E4643" transform="translate(166,349)"/>
<path d="M0 0 C0 3.40682167 -0.88768671 5.79392053 -2 9 C-2.34976758 10.32911682 -2.69096017 11.66082739 -3 13 C-5 10 -5 10 -4.875 7.0625 C-3.89462199 3.63117696 -2.69937452 2.26399153 0 0 Z " fill="#A39D98" transform="translate(324,242)"/>
<path d="M0 0 C0.66 0.33 1.32 0.66 2 1 C-1.64435772 5.99411984 -5.51979122 8.36138096 -11 11 C-9.38405168 8.95880212 -7.7143618 6.95927063 -6 5 C-5.34 5 -4.68 5 -4 5 C-4 4.34 -4 3.68 -4 3 C-2 1.375 -2 1.375 0 0 Z " fill="#B5AEAC" transform="translate(175,134)"/>
<path d="M0 0 C0.66 0.66 1.32 1.32 2 2 C1.34 3.32 0.68 4.64 0 6 C-1.98 5.34 -3.96 4.68 -6 4 C-5.67 3.01 -5.34 2.02 -5 1 C-2.625 0.375 -2.625 0.375 0 0 Z " fill="#4E4643" transform="translate(148,323)"/>
<path d="M0 0 C0.66 0.33 1.32 0.66 2 1 C2.625 3.5625 2.625 3.5625 3 6 C0.36 5.67 -2.28 5.34 -5 5 C-3.35 3.35 -1.7 1.7 0 0 Z " fill="#4C463F" transform="translate(201,153)"/>
<path d="M0 0 C0.99 0.33 1.98 0.66 3 1 C3.33 2.65 3.66 4.3 4 6 C1.69 5.67 -0.62 5.34 -3 5 C-2.625 3.0625 -2.625 3.0625 -2 1 C-1.34 0.67 -0.68 0.34 0 0 Z " fill="#4A423F" transform="translate(302,324)"/>
<path d="M0 0 C0.99 0.33 1.98 0.66 3 1 C2.34 2.32 1.68 3.64 1 5 C1.66 5.33 2.32 5.66 3 6 C0 8 0 8 -3 8 C-2.67 7.01 -2.34 6.02 -2 5 C-1.835 4.29875 -1.67 3.5975 -1.5 2.875 C-1 1 -1 1 0 0 Z " fill="#4E4643" transform="translate(215,181)"/>
<path d="M0 0 C-0.66 1.65 -1.32 3.3 -2 5 C-4.5 3.625 -4.5 3.625 -7 2 C-7 1.34 -7 0.68 -7 0 C-3.98968256 -0.93423645 -3.13349732 -1.04449911 0 0 Z " fill="#6F6B67" transform="translate(177,189)"/>
<path d="M0 0 C0.33 0.66 0.66 1.32 1 2 C0.24172908 3.17487036 -0.53207755 4.33972592 -1.3125 5.5 C-1.74175781 6.1496875 -2.17101562 6.799375 -2.61328125 7.46875 C-3.07089844 7.9740625 -3.52851563 8.479375 -4 9 C-4.99 9 -5.98 9 -7 9 C-7 8.34 -7 7.68 -7 7 C-6.34 7 -5.68 7 -5 7 C-5 6.34 -5 5.68 -5 5 C-4.34 5 -3.68 5 -3 5 C-2.690625 4.360625 -2.38125 3.72125 -2.0625 3.0625 C-1 1 -1 1 0 0 Z " fill="#98918D" transform="translate(184,166)"/>
<path d="M0 0 C1.32 0 2.64 0 4 0 C2.50163895 3.11198065 0.80066242 6.0534615 -1 9 C-2.60031344 5.79937313 -1.03173691 3.27728194 0 0 Z " fill="#98938F" transform="translate(153,166)"/>
<path d="M0 0 C0.66 0.66 1.32 1.32 2 2 C1.67 2.66 1.34 3.32 1 4 C1.99 4 2.98 4 4 4 C3.67 5.32 3.34 6.64 3 8 C1.29115995 6.37660195 -0.37446717 4.70680947 -2 3 C-2 2.34 -2 1.68 -2 1 C-1.34 0.67 -0.68 0.34 0 0 Z " fill="#8F8684" transform="translate(160,347)"/>
<path d="M0 0 C0.66 0 1.32 0 2 0 C2.66 1.32 3.32 2.64 4 4 C2.35 4.33 0.7 4.66 -1 5 C-0.67 3.35 -0.34 1.7 0 0 Z " fill="#494440" transform="translate(171,184)"/>
<path d="M0 0 C1.98 0.66 3.96 1.32 6 2 C4.68 3.32 3.36 4.64 2 6 C0 5 0 5 -0.6875 3 C-0.790625 2.34 -0.89375 1.68 -1 1 C-0.67 0.67 -0.34 0.34 0 0 Z " fill="#7C7672" transform="translate(217,182)"/>
<path d="M0 0 C2.475 0.495 2.475 0.495 5 1 C5.33 1.99 5.66 2.98 6 4 C5.34 4.66 4.68 5.32 4 6 C2.62437146 4.71034824 1.29233607 3.37310707 0 2 C0 1.34 0 0.68 0 0 Z " fill="#504945" transform="translate(220,110)"/>
<path d="M0 0 C0.66 0.33 1.32 0.66 2 1 C-3.14285714 6.57142857 -3.14285714 6.57142857 -7 7 C-6.34 6.01 -5.68 5.02 -5 4 C-4.34 4 -3.68 4 -3 4 C-3 3.34 -3 2.68 -3 2 C-2.01 2 -1.02 2 0 2 C0 1.34 0 0.68 0 0 Z " fill="#A29D96" transform="translate(216,177)"/>
<path d="M0 0 C0.99 0.33 1.98 0.66 3 1 C2.67 2.32 2.34 3.64 2 5 C0.68 5.33 -0.64 5.66 -2 6 C-2 5.34 -2 4.68 -2 4 C-2.66 3.67 -3.32 3.34 -4 3 C-2.68 2.67 -1.36 2.34 0 2 C0 1.34 0 0.68 0 0 Z " fill="#4C4441" transform="translate(298,168)"/>
<path d="M0 0 C3.59391114 1.33488128 6.75490696 2.96022723 10 5 C8 6 8 6 6.0546875 5.44140625 C5.33539063 5.15136719 4.61609375 4.86132812 3.875 4.5625 C3.15054687 4.27503906 2.42609375 3.98757812 1.6796875 3.69140625 C0.84824219 3.34916016 0.84824219 3.34916016 0 3 C0 2.01 0 1.02 0 0 Z " fill="#B2ACAA" transform="translate(342,122)"/>
<path d="M0 0 C0.99 1.32 1.98 2.64 3 4 C2.34 4.66 1.68 5.32 1 6 C-1.125 5.625 -1.125 5.625 -3 5 C-3 4.01 -3 3.02 -3 2 C-2.01 1.34 -1.02 0.68 0 0 Z " fill="#4B4340" transform="translate(311,319)"/>
<path d="M0 0 C0.99 0.99 1.98 1.98 3 3 C1.35 4.32 -0.3 5.64 -2 7 C-2.66 6.67 -3.32 6.34 -4 6 C-3.34 4.68 -2.68 3.36 -2 2 C-1.34 2 -0.68 2 0 2 C0 1.34 0 0.68 0 0 Z " fill="#999490" transform="translate(204,157)"/>
<path d="M0 0 C1 3 1 3 0 6 C-0.99 5.67 -1.98 5.34 -3 5 C-2.625 3.0625 -2.625 3.0625 -2 1 C-1.34 0.67 -0.68 0.34 0 0 Z " fill="#4B4642" transform="translate(366,353)"/>
<path d="M0 0 C2.475 0.495 2.475 0.495 5 1 C5.33 2.98 5.66 4.96 6 7 C1.125 3.375 1.125 3.375 0 0 Z " fill="#A39B99" transform="translate(175,323)"/>
<path d="M0 0 C2 3.75 2 3.75 2 6 C0.35 6.66 -1.3 7.32 -3 8 C-1.125 2.25 -1.125 2.25 0 0 Z " fill="#98958E" transform="translate(135,184)"/>
<path d="M0 0 C2.35953094 2.35953094 2.49141413 3.77895617 3 7 C1 7 1 7 -0.625 5.6875 C-2 4 -2 4 -2 1 C-1.34 0.67 -0.68 0.34 0 0 Z " fill="#807D77" transform="translate(364,144)"/>
<path d="" fill="#FFFFFF" transform="translate(0,0)"/>
<path d="" fill="#FFFFFF" transform="translate(0,0)"/>
<path d="" fill="#FFFFFF" transform="translate(0,0)"/>
<path d="" fill="#FFFFFF" transform="translate(0,0)"/>
<path d="" fill="#FFFFFF" transform="translate(0,0)"/>
<path d="" fill="#FFFFFF" transform="translate(0,0)"/>
<path d="" fill="#FFFFFF" transform="translate(0,0)"/>
<path d="" fill="#FFFFFF" transform="translate(0,0)"/>
<path d="" fill="#FFFFFF" transform="translate(0,0)"/>
<path d="" fill="#FFFFFF" transform="translate(0,0)"/>
<path d="" fill="#FFFFFF" transform="translate(0,0)"/>
<path d="" fill="#FFFFFF" transform="translate(0,0)"/>
<path d="" fill="#FFFFFF" transform="translate(0,0)"/>
<path d="" fill="#FFFFFF" transform="translate(0,0)"/>
<path d="" fill="#FFFFFF" transform="translate(0,0)"/>
<path d="" fill="#FFFFFF" transform="translate(0,0)"/>
<path d="" fill="#FFFFFF" transform="translate(0,0)"/>
<path d="" fill="#FFFFFF" transform="translate(0,0)"/>
<path d="" fill="#FFFFFF" transform="translate(0,0)"/>
<path d="" fill="#FFFFFF" transform="translate(0,0)"/>
<path d="" fill="#FFFFFF" transform="translate(0,0)"/>
<path d="" fill="#FFFFFF" transform="translate(0,0)"/>
<path d="" fill="#FFFFFF" transform="translate(0,0)"/>
<path d="" fill="#FFFFFF" transform="translate(0,0)"/>
<path d="" fill="#FFFFFF" transform="translate(0,0)"/>
<path d="" fill="#FFFFFF" transform="translate(0,0)"/>
<path d="" fill="#FFFFFF" transform="translate(0,0)"/>
<path d="" fill="#FFFFFF" transform="translate(0,0)"/>
<path d="" fill="#FFFFFF" transform="translate(0,0)"/>
<path d="" fill="#FFFFFF" transform="translate(0,0)"/>
<path d="" fill="#FFFFFF" transform="translate(0,0)"/>
<path d="" fill="#FFFFFF" transform="translate(0,0)"/>
<path d="" fill="#FFFFFF" transform="translate(0,0)"/>
<path d="" fill="#FFFFFF" transform="translate(0,0)"/>
<path d="" fill="#FFFFFF" transform="translate(0,0)"/>
<path d="" fill="#FFFFFF" transform="translate(0,0)"/>
<path d="" fill="#FFFFFF" transform="translate(0,0)"/>
<path d="" fill="#FFFFFF" transform="translate(0,0)"/>
<path d="" fill="#FFFFFF" transform="translate(0,0)"/>
<path d="" fill="#FFFFFF" transform="translate(0,0)"/>
<path d="" fill="#FFFFFF" transform="translate(0,0)"/>
<path d="" fill="#FFFFFF" transform="translate(0,0)"/>
<path d="" fill="#FFFFFF" transform="translate(0,0)"/>
<path d="" fill="#FFFFFF" transform="translate(0,0)"/>
<path d="" fill="#FFFFFF" transform="translate(0,0)"/>
<path d="" fill="#FFFFFF" transform="translate(0,0)"/>
<path d="" fill="#FFFFFF" transform="translate(0,0)"/>
<path d="" fill="#FFFFFF" transform="translate(0,0)"/>
<path d="" fill="#FFFFFF" transform="translate(0,0)"/>
<path d="" fill="#FFFFFF" transform="translate(0,0)"/>
<path d="" fill="#FFFFFF" transform="translate(0,0)"/>
<path d="" fill="#FFFFFF" transform="translate(0,0)"/>
<path d="" fill="#FFFFFF" transform="translate(0,0)"/>
<path d="" fill="#FFFFFF" transform="translate(0,0)"/>
<path d="" fill="#FFFFFF" transform="translate(0,0)"/>
<path d="" fill="#FFFFFF" transform="translate(0,0)"/>
<path d="" fill="#FFFFFF" transform="translate(0,0)"/>
<path d="" fill="#FFFFFF" transform="translate(0,0)"/>
<path d="" fill="#FFFFFF" transform="translate(0,0)"/>
<path d="" fill="#FFFFFF" transform="translate(0,0)"/>
<path d="" fill="#FFFFFF" transform="translate(0,0)"/>
<path d="" fill="#FFFFFF" transform="translate(0,0)"/>
<path d="" fill="#FFFFFF" transform="translate(0,0)"/>
<path d="" fill="#FFFFFF" transform="translate(0,0)"/>
<path d="" fill="#FFFFFF" transform="translate(0,0)"/>
<path d="" fill="#FFFFFF" transform="translate(0,0)"/>
<path d="" fill="#FFFFFF" transform="translate(0,0)"/>
<path d="" fill="#FFFFFF" transform="translate(0,0)"/>
<path d="" fill="#FFFFFF" transform="translate(0,0)"/>
</svg>
